<svg width="24" height="24" viewBox="0 0 24 24" fill="none" xmlns="http://www.w3.org/2000/svg">
<path d="M7.13271 15.7664C7.81777 15.6825 8.44117 16.1702 8.52529 16.8553C8.60936 17.5403 8.12238 18.1636 7.4374 18.2479C6.75221 18.332 6.12801 17.8452 6.04384 17.16C5.95971 16.4748 6.4475 15.8506 7.13271 15.7664Z" fill="#7D7D7D"/>
<path d="M11.5985 15.2186C12.2837 15.1344 12.9079 15.6213 12.9921 16.3065C13.0762 16.9917 12.5884 17.6159 11.9032 17.7C11.2182 17.7839 10.5948 17.2962 10.5106 16.6112C10.4266 15.9261 10.9136 15.3029 11.5985 15.2186Z" fill="#7D7D7D"/>
<path d="M6.58388 11.3006C7.26906 11.2165 7.89325 11.7033 7.97744 12.3885C8.06157 13.0737 7.57378 13.6979 6.88857 13.7821C6.20343 13.8661 5.58012 13.3783 5.49599 12.6932C5.41193 12.0081 5.89881 11.3848 6.58388 11.3006Z" fill="#7D7D7D"/>
<path d="M11.0507 10.7518C11.7358 10.6678 12.3591 11.1555 12.4433 11.8406C12.5272 12.5257 12.0404 13.149 11.3554 13.2332C10.6703 13.3173 10.0461 12.8304 9.96181 12.1453C9.87768 11.4601 10.3655 10.8359 11.0507 10.7518Z" fill="#7D7D7D"/>
<path fill-rule="evenodd" clip-rule="evenodd" d="M12.5263 6.57795C13.0061 6.55845 13.4683 6.58798 13.9237 6.75373C14.618 7.00651 15.2146 7.47226 15.6278 8.08479C15.8988 8.48656 16.0395 8.92795 16.1366 9.39826C16.2314 9.85714 16.3004 10.4259 16.3837 11.1043L16.9921 16.0672C17.0754 16.7457 17.1469 17.3148 17.1659 17.783C17.1854 18.2627 17.1558 18.7243 16.9901 19.1795C16.7373 19.874 16.2708 20.4703 15.6581 20.8836C15.2564 21.1545 14.8158 21.2953 14.3456 21.3924C13.8868 21.4872 13.3179 21.5562 12.6395 21.6395L7.67666 22.2488C6.99819 22.3322 6.42905 22.4027 5.96083 22.4217C5.48115 22.4412 5.01959 22.4116 4.56435 22.2459C3.87 21.9932 3.27354 21.5274 2.86025 20.9149C2.58925 20.5131 2.44862 20.0717 2.35146 19.6014C2.25668 19.1425 2.18769 18.5737 2.10439 17.8953L1.49501 12.9324C1.41174 12.2542 1.34123 11.6857 1.32216 11.2176C1.30266 10.7377 1.33219 10.2755 1.49794 9.82014C1.75073 9.12575 2.21639 8.5293 2.829 8.11604C3.23077 7.84504 3.67216 7.70441 4.14248 7.60725C4.60133 7.51249 5.17023 7.44346 5.84853 7.36018L10.8114 6.7508C11.4897 6.66753 12.0582 6.597 12.5263 6.57795ZM12.6073 8.576C12.2397 8.59096 11.7657 8.64884 11.0546 8.73616L6.09169 9.34553C5.38075 9.43282 4.90702 9.49182 4.54677 9.56623C4.19855 9.63818 4.04294 9.70876 3.94716 9.77326C3.68472 9.95039 3.48417 10.2072 3.37587 10.5047C3.33649 10.6133 3.30577 10.7814 3.32021 11.1365C3.33519 11.5041 3.39307 11.9783 3.48037 12.6893L4.08974 17.6512C4.17706 18.3624 4.23504 18.8368 4.30947 19.1971C4.3814 19.5452 4.45298 19.7 4.51748 19.7957C4.6945 20.0582 4.95052 20.2586 5.24794 20.367C5.35647 20.4064 5.52455 20.4381 5.87978 20.4237C6.24737 20.4087 6.72142 20.3508 7.43251 20.2635L12.3954 19.6541C13.1063 19.5668 13.5801 19.5088 13.9403 19.4344C14.2887 19.3624 14.4441 19.2909 14.5399 19.2264C14.8025 19.0493 15.0029 18.7926 15.1112 18.4949C15.1506 18.3864 15.1823 18.2183 15.1679 17.8631C15.1529 17.4956 15.095 17.022 15.0077 16.3114L14.3983 11.3485C14.311 10.6373 14.2521 10.1629 14.1776 9.80256C14.1058 9.45476 14.0351 9.29969 13.9706 9.20393C13.7935 8.94134 13.5368 8.74099 13.2392 8.63264C13.1306 8.59321 12.9628 8.56154 12.6073 8.576Z" fill="#7D7D7D"/>
<path d="M11.4608 1.57795C11.929 1.59699 12.4983 1.66848 13.1767 1.75178L18.1386 2.36018C18.8168 2.44346 19.3858 2.51347 19.8446 2.60823C20.315 2.70538 20.7563 2.84507 21.1581 3.11604C21.7708 3.52933 22.2373 4.12564 22.4901 4.82014C22.6559 5.27559 22.6845 5.73769 22.6649 6.2176C22.6459 6.68574 22.5754 7.25414 22.4921 7.93244L21.8827 12.8953C21.7994 13.5737 21.7304 14.1425 21.6356 14.6014C21.5385 15.0717 21.3988 15.5131 21.1278 15.9149C21.004 16.0984 20.8633 16.2692 20.7089 16.4246C20.3196 16.8159 19.6865 16.8185 19.2948 16.4295C18.9031 16.0403 18.9018 15.4063 19.2909 15.0145C19.3568 14.9481 19.4167 14.8751 19.4696 14.7967C19.5342 14.701 19.6056 14.5458 19.6776 14.1971C19.752 13.8369 19.811 13.3631 19.8983 12.6522L20.5067 7.68928C20.594 6.97827 20.6519 6.50413 20.6669 6.13655C20.6813 5.78117 20.6506 5.61327 20.6112 5.50471C20.5029 5.20711 20.3025 4.95137 20.0399 4.77424C19.9442 4.70966 19.7891 4.63827 19.4403 4.56623C19.0801 4.49184 18.6064 4.43282 17.8954 4.34553L12.9325 3.73616C12.2214 3.64884 11.7474 3.59193 11.3798 3.57698C11.0242 3.56253 10.8565 3.59317 10.7479 3.63264C10.4504 3.741 10.1946 3.94137 10.0175 4.20393C9.98831 4.24721 9.95819 4.30144 9.92861 4.3758C9.72423 4.88854 9.14274 5.13944 8.62978 4.93537C8.117 4.73113 7.86734 4.1495 8.07119 3.63655C8.1477 3.44421 8.24124 3.25981 8.35927 3.08479C8.77245 2.47237 9.36922 2.00654 10.0634 1.75373C10.5187 1.58801 10.9811 1.55847 11.4608 1.57795Z" fill="#7D7D7D"/>
</svg>
