<svg width="16" height="16" viewBox="0 0 16 16" fill="none" xmlns="http://www.w3.org/2000/svg">
  <path d="M3 4C3 3.44772 3.44772 3 4 3C4.55228 3 5 3.44772 5 4C5 4.55228 4.55228 5 4 5C3.44772 5 3 4.55228 3 4Z" fill="currentColor" />
  <path d="M6.5 4C6.5 3.63181 6.79848 3.33333 7.16667 3.33333H12.3333C12.7015 3.33333 13 3.63181 13 4C13 4.36819 12.7015 4.66667 12.3333 4.66667H7.16667C6.79848 4.66667 6.5 4.36819 6.5 4Z" fill="currentColor" />
  <path d="M3 8C3 7.44772 3.44772 7 4 7C4.55228 7 5 7.44772 5 8C5 8.55228 4.55228 9 4 9C3.44772 9 3 8.55228 3 8Z" fill="currentColor" />
  <path d="M6.5 8C6.5 7.63181 6.79848 7.33333 7.16667 7.33333H12.3333C12.7015 7.33333 13 7.63181 13 8C13 8.36819 12.7015 8.66667 12.3333 8.66667H7.16667C6.79848 8.66667 6.5 8.36819 6.5 8Z" fill="currentColor" />
  <path d="M3 12C3 11.4477 3.44772 11 4 11C4.55228 11 5 11.4477 5 12C5 12.5523 4.55228 13 4 13C3.44772 13 3 12.5523 3 12Z" fill="currentColor" />
  <path d="M6.5 12C6.5 11.6318 6.79848 11.3333 7.16667 11.3333H12.3333C12.7015 11.3333 13 11.6318 13 12C13 12.3682 12.7015 12.6667 12.3333 12.6667H7.16667C6.79848 12.6667 6.5 12.3682 6.5 12Z" fill="currentColor" />
</svg>
