<svg width="16" height="16" viewBox="0 0 16 16" fill="none" xmlns="http://www.w3.org/2000/svg">
  <g transform="translate(2 2.667)">
    <path d="M4.20002 1.06671C4.42093 0.772154 4.36124 0.354287 4.06668 0.133373C3.77213 -0.0875414 3.35426 -0.0278459 3.13335 0.266706L1.55439 2.37199L1.09347 1.98789C0.810622 1.75218 0.390245 1.7904 0.154536 2.07325C-0.0811735 2.3561 -0.0429575 2.77648 0.239894 3.01219L1.23989 3.84552C1.38028 3.96251 1.56252 4.01674 1.74403 3.99554C1.92553 3.97434 2.09037 3.87956 2.20002 3.73337L4.20002 1.06671Z" fill="currentColor" />
    <path d="M6.00002 2.00004C6.00002 1.63185 6.29849 1.33337 6.66668 1.33337H11.3333C11.7015 1.33337 12 1.63185 12 2.00004C12 2.36823 11.7015 2.66671 11.3333 2.66671H6.66668C6.29849 2.66671 6.00002 2.36823 6.00002 2.00004Z" fill="currentColor" />
    <path fill-rule="evenodd" clip-rule="evenodd" d="M2.00002 6.66671C0.895447 6.66671 1.67401e-05 7.56214 1.67401e-05 8.66671C1.67401e-05 9.77128 0.895447 10.6667 2.00002 10.6667C3.10459 10.6667 4.00002 9.77128 4.00002 8.66671C4.00002 7.56214 3.10459 6.66671 2.00002 6.66671ZM1.33335 8.66671C1.33335 8.29852 1.63183 8.00004 2.00002 8.00004C2.36821 8.00004 2.66668 8.29852 2.66668 8.66671C2.66668 9.0349 2.36821 9.33337 2.00002 9.33337C1.63183 9.33337 1.33335 9.0349 1.33335 8.66671Z" fill="currentColor" />
    <path d="M6.66668 8.00004C6.29849 8.00004 6.00002 8.29852 6.00002 8.66671C6.00002 9.0349 6.29849 9.33337 6.66668 9.33337H11.3333C11.7015 9.33337 12 9.0349 12 8.66671C12 8.29852 11.7015 8.00004 11.3333 8.00004H6.66668Z" fill="currentColor" />
  </g>
</svg>
