<svg width="16" height="16" viewBox="0 0 16 16" fill="none" xmlns="http://www.w3.org/2000/svg">
  <g transform="translate(1.333 2.267)">
    <path d="M4.66667 2.39974C5.03486 2.39974 5.33333 2.69822 5.33333 3.06641V8.39974C5.33333 8.76793 5.03486 9.06641 4.66667 9.06641C4.29848 9.06641 4 8.76793 4 8.39974V3.06641C4 2.69822 4.29848 2.39974 4.66667 2.39974Z" fill="currentColor" />
    <path fill-rule="evenodd" clip-rule="evenodd" d="M10.1712 0.00455729C11.9326 0.0936919 13.3333 1.54982 13.3333 3.33333V8.17969C13.3332 10.0205 11.8409 11.513 10 11.513H3.33333C1.49247 11.513 0.000131938 10.0205 0 8.17969V3.33333C2.35596e-07 1.54982 1.40074 0.0936919 3.16211 0.00455729L3.33333 0H10L10.1712 0.00455729ZM3.33333 1.33333C2.22876 1.33333 1.33333 2.22876 1.33333 3.33333V8.17969C1.33347 9.28414 2.22884 10.1797 3.33333 10.1797H10C11.1045 10.1797 11.9999 9.28415 12 8.17969V3.33333C12 2.22876 11.1046 1.33333 10 1.33333H3.33333Z" fill="currentColor" />
  </g>
</svg>
