<svg width="16" height="16" viewBox="0 0 16 16" fill="none" xmlns="http://www.w3.org/2000/svg">
  <g transform="translate(1.333 2.242)">
    <path d="M4 1.39388C4 1.3748 4.00103 1.35592 4.00261 1.33724C3.70348 1.34133 3.45357 1.34945 3.23633 1.36719C2.88342 1.39603 2.66162 1.44677 2.49414 1.51888L2.42513 1.55143C2.09587 1.71925 1.82039 1.97444 1.62825 2.28776L1.55143 2.42513C1.46197 2.60071 1.40015 2.83289 1.36719 3.23633C1.33361 3.64753 1.33333 4.17597 1.33333 4.93361V6.58201C1.33333 7.33968 1.33359 7.86808 1.36719 8.27928C1.40015 8.68255 1.46199 8.91428 1.55143 9.08981L1.62825 9.22721C1.82037 9.54055 2.09585 9.79568 2.42513 9.96355L2.49414 9.99608C2.66163 10.0682 2.88337 10.1189 3.23633 10.1478C3.45294 10.1655 3.70203 10.173 4 10.1771V1.39388ZM13.3333 6.58201C13.3333 7.31755 13.334 7.90935 13.2949 8.38735C13.2602 8.81255 13.1917 9.19275 13.0403 9.54555L12.9701 9.69535C12.6505 10.3223 12.1407 10.8321 11.5137 11.1517C11.1189 11.3528 10.6915 11.4369 10.2057 11.4765C9.7276 11.5156 9.13547 11.5149 8.39973 11.5149H4.93359C4.85048 11.5149 4.76894 11.5137 4.68945 11.5137C4.68188 11.5139 4.67431 11.5149 4.66667 11.5149C4.65705 11.5149 4.64754 11.5134 4.63802 11.513C4.03704 11.5125 3.54 11.5103 3.12761 11.4765C2.70237 11.4418 2.32231 11.3735 1.9694 11.222L1.82031 11.1517C1.23223 10.852 0.746781 10.3853 0.425134 9.81121L0.363281 9.69535C0.162101 9.30041 0.078114 8.87328 0.038414 8.38735C-0.000632639 7.90935 6.6417e-07 7.31755 6.6417e-07 6.58201V4.93361C6.6417e-07 4.19787 -0.00064597 3.60572 0.038414 3.12761C0.0781074 2.6418 0.162181 2.21511 0.363281 1.82031L0.425134 1.70378C0.746781 1.12974 1.23227 0.662901 1.82031 0.363281L1.9694 0.292974C2.32229 0.141554 2.70239 0.073154 3.12761 0.038414C3.60571 -0.00064597 4.19787 6.6417e-07 4.93359 6.6417e-07H8.39973C9.13547 6.6417e-07 9.7276 -0.00064597 10.2057 0.038414C10.6915 0.0781074 11.1182 0.162187 11.513 0.363281L11.6295 0.425781C12.2035 0.747427 12.6705 1.23237 12.9701 1.82031L13.0403 1.9694C13.1918 2.32229 13.2602 2.7024 13.2949 3.12761C13.334 3.60572 13.3333 4.19787 13.3333 4.93361V6.58201ZM5.33333 10.1816H8.39973C9.1574 10.1816 9.6858 10.1813 10.097 10.1478C10.5005 10.1148 10.7326 10.053 10.9082 9.96355L11.0456 9.88675C11.3589 9.69455 11.6141 9.41915 11.7819 9.08981L11.8145 9.02081C11.8865 8.85341 11.9373 8.63195 11.9661 8.27928C11.9997 7.86808 12 7.33968 12 6.58201V4.93361C12 4.17596 11.9997 3.64753 11.9661 3.23633C11.9373 2.88342 11.8866 2.66163 11.8145 2.49414L11.7819 2.42513C11.6141 2.09586 11.3589 1.82038 11.0456 1.62826L10.9082 1.55143C10.7326 1.46197 10.5005 1.40015 10.097 1.36719C9.6858 1.33361 9.15733 1.33333 8.39973 1.33333H5.33073C5.33253 1.35327 5.33333 1.37347 5.33333 1.39388V10.1816Z" fill="currentColor" />
  </g>
</svg>
