<svg width="16" height="16" viewBox="0 0 16 16" fill="none" xmlns="http://www.w3.org/2000/svg">
  <g transform="translate(1.333 2.267)">
    <path d="M8.66667 2.31042C9.03486 2.31042 9.33333 2.6089 9.33333 2.97709V8.31042C9.33333 8.67861 9.03486 8.97709 8.66667 8.97709C8.29848 8.97709 8 8.67861 8 8.31042V2.97709C8 2.6089 8.29848 2.31042 8.66667 2.31042Z" fill="currentColor" />
    <path fill-rule="evenodd" clip-rule="evenodd" d="M10.1712 0.00455729C11.9326 0.0936919 13.3333 1.54982 13.3333 3.33333V8.17969C13.3332 10.0205 11.8409 11.513 10 11.513H3.33333C1.49247 11.513 0.000131938 10.0205 0 8.17969V3.33333C2.35596e-07 1.54982 1.40074 0.0936919 3.16211 0.00455729L3.33333 0H10L10.1712 0.00455729ZM3.33333 1.33333C2.22876 1.33333 1.33333 2.22876 1.33333 3.33333V8.17969C1.33347 9.28414 2.22884 10.1797 3.33333 10.1797H10C11.1045 10.1797 11.9999 9.28415 12 8.17969V3.33333C12 2.22876 11.1046 1.33333 10 1.33333H3.33333Z" fill="currentColor" />
  </g>
</svg>
