<svg width="16" height="16" viewBox="0 0 16 16" fill="none" xmlns="http://www.w3.org/2000/svg">
  <g transform="translate(1 1.667)">
    <path d="M12 8C12 7.63181 11.7015 7.33333 11.3333 7.33333C10.9651 7.33333 10.6667 7.63181 10.6667 8V9.33333H9.33333C8.96514 9.33333 8.66667 9.63181 8.66667 10C8.66667 10.3682 8.96514 10.6667 9.33333 10.6667H10.6667V12C10.6667 12.3682 10.9651 12.6667 11.3333 12.6667C11.7015 12.6667 12 12.3682 12 12V10.6667H13.3333C13.7015 10.6667 14 10.3682 14 10C14 9.63181 13.7015 9.33333 13.3333 9.33333H12V8Z" fill="currentColor" />
    <path d="M13.3039 3.83212C13.3333 4.19291 13.3333 4.63581 13.3333 5.17245V5.33333C13.3333 5.70152 13.0349 6 12.6667 6L1.33333 6V8.13334C1.33333 8.70439 1.33385 9.09258 1.35837 9.39264C1.38225 9.68492 1.42553 9.83439 1.47866 9.93866C1.60649 10.1895 1.81046 10.3935 2.06135 10.5213C2.16561 10.5745 2.31508 10.6178 2.60736 10.6416C2.90742 10.6662 3.29561 10.6667 3.86667 10.6667H6.66667C7.03486 10.6667 7.33333 10.9651 7.33333 11.3333C7.33333 11.7015 7.03486 12 6.66667 12H3.83912C3.30248 12 2.85958 12 2.49878 11.9705C2.12405 11.9399 1.77958 11.8742 1.45603 11.7094C0.954261 11.4537 0.546313 11.0457 0.29065 10.544C0.12579 10.2204 0.0600801 9.87595 0.0294633 9.50122C-1.4777e-05 9.14043 -7.97189e-06 8.69752 2.74628e-07 8.16088V3.83914C-7.97189e-06 3.30249 -1.4777e-05 2.85958 0.0294633 2.49879C0.0600801 2.12405 0.12579 1.77959 0.29065 1.45603C0.546312 0.954263 0.954261 0.546315 1.45603 0.290652C1.77958 0.125792 2.12405 0.0600824 2.49878 0.0294656C2.85958 -1.2671e-05 3.30249 -5.67818e-06 3.83913 2.82542e-06L4.40615 9.3567e-07C4.50346 -8.70144e-06 4.57687 -1.59604e-05 4.64942 0.00392199C5.25608 0.0368476 5.83331 0.275943 6.28557 0.681634C6.33966 0.730162 6.39153 0.782037 6.46034 0.85087L6.47141 0.861932C6.55598 0.946506 6.58098 0.971187 6.60477 0.992521C6.83089 1.19537 7.11951 1.31491 7.42284 1.33138C7.45474 1.33311 7.48987 1.33334 7.60948 1.33334L9.4942 1.33334C10.0308 1.33333 10.4738 1.33332 10.8346 1.3628C11.2093 1.39342 11.5538 1.45913 11.8773 1.62399C12.3791 1.87965 12.787 2.2876 13.0427 2.78936C13.2075 3.11292 13.2733 3.45739 13.3039 3.83212ZM5.39524 1.67415C5.16911 1.47131 4.88049 1.35176 4.57717 1.3353C4.54526 1.33356 4.51013 1.33334 4.39053 1.33334H3.86667C3.29561 1.33334 2.90742 1.33385 2.60736 1.35837C2.31508 1.38225 2.16561 1.42553 2.06135 1.47866C1.81046 1.60649 1.60649 1.81047 1.47866 2.06135C1.42553 2.16562 1.38225 2.31508 1.35837 2.60736C1.33385 2.90742 1.33333 3.29562 1.33333 3.86667V4.66667H11.9988C11.9967 4.36965 11.991 4.13642 11.975 3.9407C11.9511 3.64842 11.9078 3.49895 11.8547 3.39468C11.7268 3.1438 11.5229 2.93983 11.272 2.81199C11.1677 2.75887 11.0183 2.71558 10.726 2.6917C10.4259 2.66719 10.0377 2.66667 9.46667 2.66667L7.59385 2.66667C7.49651 2.66668 7.42315 2.66669 7.35058 2.66275C6.74392 2.62983 6.16669 2.39073 5.71444 1.98504C5.66034 1.93651 5.60847 1.88463 5.53965 1.8158L5.5286 1.80474C5.44402 1.72017 5.41902 1.69549 5.39524 1.67415Z" fill="currentColor" />
  </g>
</svg>
