<svg width="24" height="24" viewBox="0 0 24 24" fill="none" xmlns="http://www.w3.org/2000/svg">
<path d="M12 2.00003C17.5228 2.00003 21.9999 6.47729 22 12C22 17.5229 17.5228 22 12 22C6.47733 21.9998 2 17.5227 2 12C2.00013 6.47742 6.47741 2.00024 12 2.00003ZM12 4.00394C10.5252 4.00401 9.14716 4.40383 7.96387 5.09866C8.30467 5.04758 8.65376 5.02054 9.00879 5.02054C12.868 5.02071 15.9961 8.14955 15.9961 12.0088C15.996 12.5554 15.5534 12.9979 15.0068 12.9981C14.4602 12.9981 14.0167 12.5554 14.0166 12.0088C14.0166 9.24296 11.7746 7.0002 9.00879 7.00003C6.42692 7.00003 4.30177 8.9542 4.03027 11.4639C4.0177 11.6482 4.00879 11.834 4.00879 12.0215C4.00879 16.4494 7.57215 19.9969 12 19.9971C13.4678 19.9971 14.8403 19.6026 16.0205 18.917C15.6837 18.9669 15.339 18.9932 14.9883 18.9932C11.129 18.9931 8 15.8642 8 12.0049C8.00017 11.4584 8.44366 11.0157 8.99023 11.0157C9.53683 11.0157 9.9803 11.4584 9.98047 12.0049C9.98047 14.7708 12.2224 17.0136 14.9883 17.0137C17.7194 17.0137 19.9387 14.8273 19.9941 12.1094C19.9946 12.0731 19.9971 12.0365 19.9971 12C19.9969 7.57212 16.4279 4.00394 12 4.00394Z" fill="#7D7D7D"/>
</svg>
