<svg width="24" height="24" viewBox="0 0 24 24" fill="none" xmlns="http://www.w3.org/2000/svg">
<path d="M3.25049 16.9233H14.6226C15.1688 15.8803 14.4644 14.3752 13.2072 14.3752H9.32822L14.6915 4.917C15.0351 4.30436 14.8324 3.52374 14.2311 3.17373C13.6298 2.82372 12.8636 3.0302 12.5201 3.64283L11.9634 4.6229L11.4172 3.63921C11.0668 3.02657 10.3075 2.8201 9.7062 3.17011C9.10489 3.52714 8.90224 4.30074 9.24577 4.91337L10.5204 7.16762L6.43879 14.375H3.25049C2.55652 14.375 1.99988 14.9421 1.99988 15.6492C1.99988 16.3564 2.55652 16.9233 3.25049 16.9233Z" fill="#7D7D7D"/>
<path d="M4.22639 20.8299C4.8277 21.1799 5.59388 20.9734 5.93742 20.3608L7.13981 18.236C6.49051 17.4378 5.66944 17.1928 4.65926 17.5114L3.76597 19.0866C3.42243 19.6993 3.62508 20.4799 4.22639 20.8299Z" fill="#7D7D7D"/>
<path d="M20.749 16.9303H18.942L20.1617 19.0865C20.5053 19.6991 20.3026 20.4727 19.7013 20.8297C19.1 21.1798 18.3407 20.9733 17.9903 20.3607C15.9357 16.7308 14.3931 14.0145 13.3694 12.2047C12.3214 10.3634 13.0705 8.5153 13.8091 7.88863C14.6302 9.32376 15.8568 11.4906 17.4956 14.3819H20.7493C21.4432 14.3819 21.9999 14.9491 21.9999 15.6561C21.9997 16.3631 21.443 16.9303 20.749 16.9303Z" fill="#7D7D7D"/>
</svg>
