<svg width="24" height="24" viewBox="0 0 24 24" fill="none" xmlns="http://www.w3.org/2000/svg">
<path d="M4 7C4 4.64298 4 3.46447 4.73223 2.73223C5.46447 2 6.64298 2 9 2H15C17.357 2 18.5355 2 19.2678 2.73223C20 3.46447 20 4.64298 20 7V17C20 19.357 20 20.5355 19.2678 21.2678C18.5355 22 17.357 22 15 22H9C6.64298 22 5.46447 22 4.73223 21.2678C4 20.5355 4 19.357 4 17V7Z" fill="url(#paint0_linear_374_1992)"/>
<path d="M15 21.5V22H9V21.5H15ZM19.5 17V7C19.5 5.80735 19.4991 4.96297 19.4131 4.32324C19.329 3.69801 19.1718 3.34365 18.9141 3.08594C18.6564 2.82823 18.302 2.67099 17.6768 2.58691C17.037 2.50091 16.1926 2.5 15 2.5H9C7.80735 2.5 6.96297 2.50091 6.32324 2.58691C5.69801 2.67099 5.34365 2.82823 5.08594 3.08594C4.82823 3.34365 4.67099 3.69801 4.58691 4.32324C4.50091 4.96297 4.5 5.80735 4.5 7V17C4.5 18.1926 4.50091 19.037 4.58691 19.6768C4.67099 20.302 4.82823 20.6564 5.08594 20.9141C5.34365 21.1718 5.69801 21.329 6.32324 21.4131C6.96297 21.4991 7.80735 21.5 9 21.5V22C6.79025 22 5.61645 21.9999 4.875 21.3965L4.73242 21.2676C4.00019 20.5353 4 19.357 4 17V7C4 4.79025 4.00014 3.61645 4.60352 2.875L4.73242 2.73242C5.46465 2.00019 6.64298 2 9 2H15C17.357 2 18.5353 2.00019 19.2676 2.73242C19.9998 3.46465 20 4.64298 20 7V17L19.999 17.8301C19.989 19.6447 19.9083 20.6269 19.2676 21.2676C18.5353 21.9998 17.357 22 15 22V21.5C16.1926 21.5 17.037 21.4991 17.6768 21.4131C18.302 21.329 18.6564 21.1718 18.9141 20.9141C19.1718 20.6564 19.329 20.302 19.4131 19.6768C19.4991 19.037 19.5 18.1926 19.5 17Z" fill="white" fill-opacity="0.3"/>
<foreignObject x="-2" y="1" width="20" height="10"><div xmlns="http://www.w3.org/1999/xhtml" style="backdrop-filter:blur(2px);clip-path:url(#bgblur_0_374_1992_clip_path);height:100%;width:100%"></div></foreignObject><g filter="url(#filter0_d_374_1992)" data-figma-bg-blur-radius="4">
<path d="M2 6C2 5.44772 2.44772 5 3 5H13C13.5523 5 14 5.44772 14 6V6C14 6.55228 13.5523 7 13 7H3C2.44772 7 2 6.55228 2 6V6Z" fill="url(#paint1_linear_374_1992)" fill-opacity="0.6" shape-rendering="crispEdges"/>
</g>
<foreignObject x="-2" y="1" width="20" height="10"><div xmlns="http://www.w3.org/1999/xhtml" style="backdrop-filter:blur(2px);clip-path:url(#bgblur_1_374_1992_clip_path);height:100%;width:100%"></div></foreignObject><g filter="url(#filter1_d_374_1992)" data-figma-bg-blur-radius="4">
<path d="M13 6.90039V7H3V6.90039H13ZM13.9004 6C13.9004 5.50294 13.4971 5.09961 13 5.09961H3C2.50294 5.09961 2.09961 5.50294 2.09961 6C2.09961 6.49706 2.50294 6.90039 3 6.90039V7L2.89746 6.99512C2.39333 6.94379 2 6.51768 2 6C2 5.44772 2.44772 5 3 5H13C13.5523 5 14 5.44772 14 6C14 6.51768 13.6067 6.94379 13.1025 6.99512L13 7V6.90039C13.4971 6.90039 13.9004 6.49706 13.9004 6Z" fill="white" fill-opacity="0.2" style="mix-blend-mode:plus-lighter" shape-rendering="crispEdges"/>
</g>
<foreignObject x="11" y="1" width="10" height="10"><div xmlns="http://www.w3.org/1999/xhtml" style="backdrop-filter:blur(2px);clip-path:url(#bgblur_2_374_1992_clip_path);height:100%;width:100%"></div></foreignObject><g filter="url(#filter2_d_374_1992)" data-figma-bg-blur-radius="4">
<path d="M15 6C15 5.44772 15.4477 5 16 5V5C16.5523 5 17 5.44772 17 6V6C17 6.55228 16.5523 7 16 7V7C15.4477 7 15 6.55228 15 6V6Z" fill="url(#paint2_linear_374_1992)" fill-opacity="0.6" shape-rendering="crispEdges"/>
</g>
<foreignObject x="11" y="1" width="10" height="10"><div xmlns="http://www.w3.org/1999/xhtml" style="backdrop-filter:blur(2px);clip-path:url(#bgblur_3_374_1992_clip_path);height:100%;width:100%"></div></foreignObject><g filter="url(#filter3_d_374_1992)" data-figma-bg-blur-radius="4">
<path d="M16.9004 6C16.9004 5.50294 16.4971 5.09961 16 5.09961C15.5029 5.09961 15.0996 5.50294 15.0996 6C15.0996 6.49706 15.5029 6.90039 16 6.90039V7C15.4477 7 15 6.55228 15 6C15 5.44772 15.4477 5 16 5C16.5523 5 17 5.44772 17 6C17 6.55228 16.5523 7 16 7V6.90039C16.4971 6.90039 16.9004 6.49706 16.9004 6Z" fill="white" fill-opacity="0.2" style="mix-blend-mode:plus-lighter" shape-rendering="crispEdges"/>
</g>
<foreignObject x="-2" y="4" width="14" height="10"><div xmlns="http://www.w3.org/1999/xhtml" style="backdrop-filter:blur(2px);clip-path:url(#bgblur_4_374_1992_clip_path);height:100%;width:100%"></div></foreignObject><g filter="url(#filter4_d_374_1992)" data-figma-bg-blur-radius="4">
<path d="M2 9C2 8.44772 2.44772 8 3 8H7C7.55228 8 8 8.44772 8 9V9C8 9.55228 7.55228 10 7 10H3C2.44772 10 2 9.55228 2 9V9Z" fill="url(#paint3_linear_374_1992)" fill-opacity="0.6" shape-rendering="crispEdges"/>
</g>
<foreignObject x="-2" y="4" width="14" height="10"><div xmlns="http://www.w3.org/1999/xhtml" style="backdrop-filter:blur(2px);clip-path:url(#bgblur_5_374_1992_clip_path);height:100%;width:100%"></div></foreignObject><g filter="url(#filter5_d_374_1992)" data-figma-bg-blur-radius="4">
<path d="M7 9.90039V10H3V9.90039H7ZM7.90039 9C7.90039 8.50294 7.49706 8.09961 7 8.09961H3C2.50294 8.09961 2.09961 8.50294 2.09961 9C2.09961 9.49706 2.50294 9.90039 3 9.90039V10C2.44772 10 2 9.55228 2 9C2 8.44772 2.44772 8 3 8H7L7.10254 8.00488C7.60667 8.05621 8 8.48232 8 9C8 9.51768 7.60667 9.94379 7.10254 9.99512L7 10V9.90039C7.49706 9.90039 7.90039 9.49706 7.90039 9Z" fill="white" fill-opacity="0.2" style="mix-blend-mode:plus-lighter" shape-rendering="crispEdges"/>
</g>
<g filter="url(#filter6_d_374_1992)">
<path d="M17.5183 14V14.822H16.4023V18.212H15.3763V14.822H14.2603V14H17.5183Z" fill="url(#paint4_linear_374_1992)" fill-opacity="0.8"/>
<path d="M16.3024 14.7217H17.4186V14.0996H14.3599V14.7217H15.4761V18.1124H16.3024V14.7217ZM16.402 18.212H15.3765V14.8223H14.2603V14H17.5183V14.8223H16.402V18.212Z" fill="white" fill-opacity="0.2" style="mix-blend-mode:plus-lighter"/>
<path d="M13.9541 15.356C13.9541 15.6 13.8981 15.824 13.7861 16.028C13.6741 16.228 13.5021 16.39 13.2701 16.514C13.0381 16.638 12.7501 16.7 12.4061 16.7H11.7701V18.212H10.7441V14H12.4061C12.7421 14 13.0261 14.058 13.2581 14.174C13.4901 14.29 13.6641 14.45 13.7801 14.654C13.8961 14.858 13.9541 15.092 13.9541 15.356ZM12.3281 15.884C12.5241 15.884 12.6701 15.838 12.7661 15.746C12.8621 15.654 12.9101 15.524 12.9101 15.356C12.9101 15.188 12.8621 15.058 12.7661 14.966C12.6701 14.874 12.5241 14.828 12.3281 14.828H11.7701V15.884H12.3281Z" fill="url(#paint5_linear_374_1992)" fill-opacity="0.8"/>
<path d="M13.8545 15.3565C13.8545 15.1076 13.7998 14.8903 13.6934 14.7031C13.5883 14.5184 13.4298 14.3717 13.2139 14.2637C12.9993 14.1564 12.7311 14.0996 12.4063 14.0996H10.8438V18.1124H11.6699V16.5997H12.4063V16.7003H11.7705V18.212H10.7441V14H12.4063L12.6485 14.0107C12.8808 14.0325 13.0839 14.0869 13.2578 14.1738C13.4898 14.2898 13.6643 14.4503 13.7803 14.6543C13.8962 14.8582 13.9541 15.0926 13.9541 15.3565L13.9434 15.5352C13.9224 15.7107 13.8702 15.8753 13.7862 16.0284L13.6905 16.1709C13.5841 16.3065 13.4442 16.4208 13.2705 16.5137L13.086 16.5958C12.9558 16.6423 12.8115 16.673 12.6533 16.6885L12.4063 16.7003V16.5997C12.7385 16.5996 13.009 16.54 13.2227 16.4258C13.4402 16.3096 13.5969 16.1603 13.6983 15.9795C13.8016 15.7912 13.8545 15.5842 13.8545 15.3565ZM12.9102 15.3565C12.9102 15.2304 12.8832 15.1253 12.8291 15.042L12.7666 14.9658C12.6946 14.8969 12.594 14.8542 12.4658 14.8369L12.3281 14.8281V14.7276C12.5377 14.7276 12.7132 14.777 12.835 14.8936C12.9556 15.0091 13.0098 15.1688 13.0098 15.3565C13.0097 15.5439 12.9555 15.7029 12.835 15.8184C12.7132 15.935 12.5377 15.9844 12.3281 15.9844H11.6699V14.7276H12.3281V14.8281H11.7705V15.8838H12.3281C12.475 15.8838 12.5939 15.8583 12.6846 15.8067L12.7666 15.7461C12.8386 15.6771 12.8834 15.5864 12.9014 15.4746L12.9102 15.3565Z" fill="white" fill-opacity="0.2" style="mix-blend-mode:plus-lighter"/>
<path d="M10.21 15.356C10.21 15.6 10.154 15.824 10.042 16.028C9.93 16.228 9.758 16.39 9.526 16.514C9.294 16.638 9.006 16.7 8.662 16.7H8.026V18.212H7V14H8.662C8.998 14 9.282 14.058 9.514 14.174C9.746 14.29 9.92 14.45 10.036 14.654C10.152 14.858 10.21 15.092 10.21 15.356ZM8.584 15.884C8.78 15.884 8.926 15.838 9.022 15.746C9.118 15.654 9.166 15.524 9.166 15.356C9.166 15.188 9.118 15.058 9.022 14.966C8.926 14.874 8.78 14.828 8.584 14.828H8.026V15.884H8.584Z" fill="url(#paint6_linear_374_1992)" fill-opacity="0.8"/>
<path d="M10.1104 15.3565C10.1104 15.1076 10.0557 14.8903 9.94925 14.7031C9.84414 14.5184 9.68568 14.3717 9.46976 14.2637C9.25514 14.1564 8.98699 14.0996 8.66213 14.0996H7.09961V18.1124H7.92579V16.5997H8.66213V16.7003H8.02638V18.212H7V14H8.66213L8.90432 14.0107C9.13666 14.0325 9.33978 14.0869 9.5137 14.1738C9.74571 14.2898 9.92017 14.4503 10.0362 14.6543C10.1521 14.8582 10.21 15.0926 10.21 15.3565L10.1993 15.5352C10.1783 15.7107 10.126 15.8753 10.042 16.0284L9.94632 16.1709C9.83993 16.3065 9.7001 16.4208 9.5264 16.5137L9.34183 16.5958C9.21169 16.6423 9.0674 16.673 8.9092 16.6885L8.66213 16.7003V16.5997C8.9944 16.5996 9.26489 16.54 9.47855 16.4258C9.69602 16.3096 9.85278 16.1603 9.95414 15.9795C10.0575 15.7912 10.1103 15.5842 10.1104 15.3565ZM9.16604 15.3565C9.16604 15.2304 9.13904 15.1253 9.08499 15.042L9.02249 14.9658C8.9505 14.8969 8.84991 14.8542 8.7217 14.8369L8.584 14.8281V14.7276C8.79352 14.7276 8.96904 14.777 9.09085 14.8936C9.21142 15.0091 9.26565 15.1688 9.26565 15.3565C9.26557 15.5439 9.21132 15.7029 9.09085 15.8184C8.96904 15.935 8.79355 15.9844 8.584 15.9844H7.92579V14.7276H8.584V14.8281H8.02638V15.8838H8.584C8.73086 15.8838 8.84974 15.8583 8.94045 15.8067L9.02249 15.7461C9.09444 15.6771 9.1393 15.5864 9.15725 15.4746L9.16604 15.3565Z" fill="white" fill-opacity="0.2" style="mix-blend-mode:plus-lighter"/>
</g>
<defs>
<filter id="filter0_d_374_1992" x="-2" y="1" width="20" height="10" filterUnits="userSpaceOnUse" color-interpolation-filters="sRGB">
<feFlood flood-opacity="0" result="BackgroundImageFix"/>
<feColorMatrix in="SourceAlpha" type="matrix" values="0 0 0 0 0 0 0 0 0 0 0 0 0 0 0 0 0 0 127 0" result="hardAlpha"/>
<feOffset dx="1" dy="1"/>
<feGaussianBlur stdDeviation="1"/>
<feComposite in2="hardAlpha" operator="out"/>
<feColorMatrix type="matrix" values="0 0 0 0 0.41501 0 0 0 0 0.0176821 0 0 0 0 0.0176821 0 0 0 0.2 0"/>
<feBlend mode="normal" in2="BackgroundImageFix" result="effect1_dropShadow_374_1992"/>
<feBlend mode="normal" in="SourceGraphic" in2="effect1_dropShadow_374_1992" result="shape"/>
</filter>
<clipPath id="bgblur_0_374_1992_clip_path" transform="translate(2 -1)"><path d="M2 6C2 5.44772 2.44772 5 3 5H13C13.5523 5 14 5.44772 14 6V6C14 6.55228 13.5523 7 13 7H3C2.44772 7 2 6.55228 2 6V6Z"/>
</clipPath><filter id="filter1_d_374_1992" x="-2" y="1" width="20" height="10" filterUnits="userSpaceOnUse" color-interpolation-filters="sRGB">
<feFlood flood-opacity="0" result="BackgroundImageFix"/>
<feColorMatrix in="SourceAlpha" type="matrix" values="0 0 0 0 0 0 0 0 0 0 0 0 0 0 0 0 0 0 127 0" result="hardAlpha"/>
<feOffset dx="1" dy="1"/>
<feGaussianBlur stdDeviation="1"/>
<feComposite in2="hardAlpha" operator="out"/>
<feColorMatrix type="matrix" values="0 0 0 0 0.41501 0 0 0 0 0.0176821 0 0 0 0 0.0176821 0 0 0 0.2 0"/>
<feBlend mode="normal" in2="BackgroundImageFix" result="effect1_dropShadow_374_1992"/>
<feBlend mode="normal" in="SourceGraphic" in2="effect1_dropShadow_374_1992" result="shape"/>
</filter>
<clipPath id="bgblur_1_374_1992_clip_path" transform="translate(2 -1)"><path d="M13 6.90039V7H3V6.90039H13ZM13.9004 6C13.9004 5.50294 13.4971 5.09961 13 5.09961H3C2.50294 5.09961 2.09961 5.50294 2.09961 6C2.09961 6.49706 2.50294 6.90039 3 6.90039V7L2.89746 6.99512C2.39333 6.94379 2 6.51768 2 6C2 5.44772 2.44772 5 3 5H13C13.5523 5 14 5.44772 14 6C14 6.51768 13.6067 6.94379 13.1025 6.99512L13 7V6.90039C13.4971 6.90039 13.9004 6.49706 13.9004 6Z"/>
</clipPath><filter id="filter2_d_374_1992" x="11" y="1" width="10" height="10" filterUnits="userSpaceOnUse" color-interpolation-filters="sRGB">
<feFlood flood-opacity="0" result="BackgroundImageFix"/>
<feColorMatrix in="SourceAlpha" type="matrix" values="0 0 0 0 0 0 0 0 0 0 0 0 0 0 0 0 0 0 127 0" result="hardAlpha"/>
<feOffset dx="1" dy="1"/>
<feGaussianBlur stdDeviation="1"/>
<feComposite in2="hardAlpha" operator="out"/>
<feColorMatrix type="matrix" values="0 0 0 0 0.41501 0 0 0 0 0.0176821 0 0 0 0 0.0176821 0 0 0 0.2 0"/>
<feBlend mode="normal" in2="BackgroundImageFix" result="effect1_dropShadow_374_1992"/>
<feBlend mode="normal" in="SourceGraphic" in2="effect1_dropShadow_374_1992" result="shape"/>
</filter>
<clipPath id="bgblur_2_374_1992_clip_path" transform="translate(-11 -1)"><path d="M15 6C15 5.44772 15.4477 5 16 5V5C16.5523 5 17 5.44772 17 6V6C17 6.55228 16.5523 7 16 7V7C15.4477 7 15 6.55228 15 6V6Z"/>
</clipPath><filter id="filter3_d_374_1992" x="11" y="1" width="10" height="10" filterUnits="userSpaceOnUse" color-interpolation-filters="sRGB">
<feFlood flood-opacity="0" result="BackgroundImageFix"/>
<feColorMatrix in="SourceAlpha" type="matrix" values="0 0 0 0 0 0 0 0 0 0 0 0 0 0 0 0 0 0 127 0" result="hardAlpha"/>
<feOffset dx="1" dy="1"/>
<feGaussianBlur stdDeviation="1"/>
<feComposite in2="hardAlpha" operator="out"/>
<feColorMatrix type="matrix" values="0 0 0 0 0.41501 0 0 0 0 0.0176821 0 0 0 0 0.0176821 0 0 0 0.2 0"/>
<feBlend mode="normal" in2="BackgroundImageFix" result="effect1_dropShadow_374_1992"/>
<feBlend mode="normal" in="SourceGraphic" in2="effect1_dropShadow_374_1992" result="shape"/>
</filter>
<clipPath id="bgblur_3_374_1992_clip_path" transform="translate(-11 -1)"><path d="M16.9004 6C16.9004 5.50294 16.4971 5.09961 16 5.09961C15.5029 5.09961 15.0996 5.50294 15.0996 6C15.0996 6.49706 15.5029 6.90039 16 6.90039V7C15.4477 7 15 6.55228 15 6C15 5.44772 15.4477 5 16 5C16.5523 5 17 5.44772 17 6C17 6.55228 16.5523 7 16 7V6.90039C16.4971 6.90039 16.9004 6.49706 16.9004 6Z"/>
</clipPath><filter id="filter4_d_374_1992" x="-2" y="4" width="14" height="10" filterUnits="userSpaceOnUse" color-interpolation-filters="sRGB">
<feFlood flood-opacity="0" result="BackgroundImageFix"/>
<feColorMatrix in="SourceAlpha" type="matrix" values="0 0 0 0 0 0 0 0 0 0 0 0 0 0 0 0 0 0 127 0" result="hardAlpha"/>
<feOffset dx="1" dy="1"/>
<feGaussianBlur stdDeviation="1"/>
<feComposite in2="hardAlpha" operator="out"/>
<feColorMatrix type="matrix" values="0 0 0 0 0.41501 0 0 0 0 0.0176821 0 0 0 0 0.0176821 0 0 0 0.2 0"/>
<feBlend mode="normal" in2="BackgroundImageFix" result="effect1_dropShadow_374_1992"/>
<feBlend mode="normal" in="SourceGraphic" in2="effect1_dropShadow_374_1992" result="shape"/>
</filter>
<clipPath id="bgblur_4_374_1992_clip_path" transform="translate(2 -4)"><path d="M2 9C2 8.44772 2.44772 8 3 8H7C7.55228 8 8 8.44772 8 9V9C8 9.55228 7.55228 10 7 10H3C2.44772 10 2 9.55228 2 9V9Z"/>
</clipPath><filter id="filter5_d_374_1992" x="-2" y="4" width="14" height="10" filterUnits="userSpaceOnUse" color-interpolation-filters="sRGB">
<feFlood flood-opacity="0" result="BackgroundImageFix"/>
<feColorMatrix in="SourceAlpha" type="matrix" values="0 0 0 0 0 0 0 0 0 0 0 0 0 0 0 0 0 0 127 0" result="hardAlpha"/>
<feOffset dx="1" dy="1"/>
<feGaussianBlur stdDeviation="1"/>
<feComposite in2="hardAlpha" operator="out"/>
<feColorMatrix type="matrix" values="0 0 0 0 0.41501 0 0 0 0 0.0176821 0 0 0 0 0.0176821 0 0 0 0.2 0"/>
<feBlend mode="normal" in2="BackgroundImageFix" result="effect1_dropShadow_374_1992"/>
<feBlend mode="normal" in="SourceGraphic" in2="effect1_dropShadow_374_1992" result="shape"/>
</filter>
<clipPath id="bgblur_5_374_1992_clip_path" transform="translate(2 -4)"><path d="M7 9.90039V10H3V9.90039H7ZM7.90039 9C7.90039 8.50294 7.49706 8.09961 7 8.09961H3C2.50294 8.09961 2.09961 8.50294 2.09961 9C2.09961 9.49706 2.50294 9.90039 3 9.90039V10C2.44772 10 2 9.55228 2 9C2 8.44772 2.44772 8 3 8H7L7.10254 8.00488C7.60667 8.05621 8 8.48232 8 9C8 9.51768 7.60667 9.94379 7.10254 9.99512L7 10V9.90039C7.49706 9.90039 7.90039 9.49706 7.90039 9Z"/>
</clipPath><filter id="filter6_d_374_1992" x="3" y="10" width="18.5183" height="12.212" filterUnits="userSpaceOnUse" color-interpolation-filters="sRGB">
<feFlood flood-opacity="0" result="BackgroundImageFix"/>
<feColorMatrix in="SourceAlpha" type="matrix" values="0 0 0 0 0 0 0 0 0 0 0 0 0 0 0 0 0 0 127 0" result="hardAlpha"/>
<feOffset dx="1" dy="1"/>
<feGaussianBlur stdDeviation="1"/>
<feComposite in2="hardAlpha" operator="out"/>
<feColorMatrix type="matrix" values="0 0 0 0 0.41501 0 0 0 0 0.0176821 0 0 0 0 0.0176821 0 0 0 0.2 0"/>
<feBlend mode="normal" in2="BackgroundImageFix" result="effect1_dropShadow_374_1992"/>
<feBlend mode="normal" in="SourceGraphic" in2="effect1_dropShadow_374_1992" result="shape"/>
</filter>
<linearGradient id="paint0_linear_374_1992" x1="4" y1="2" x2="20" y2="22" gradientUnits="userSpaceOnUse">
<stop stop-color="#FF3333"/>
<stop offset="1" stop-color="#FE7F68"/>
</linearGradient>
<linearGradient id="paint1_linear_374_1992" x1="1.77871" y1="5.94967" x2="14.5029" y2="5.94967" gradientUnits="userSpaceOnUse">
<stop stop-color="white"/>
<stop offset="1" stop-color="#FFBFBF"/>
</linearGradient>
<linearGradient id="paint2_linear_374_1992" x1="14.9631" y1="5.94967" x2="17.0838" y2="5.94967" gradientUnits="userSpaceOnUse">
<stop stop-color="white"/>
<stop offset="1" stop-color="#FFBFBF"/>
</linearGradient>
<linearGradient id="paint3_linear_374_1992" x1="1.88935" y1="8.94967" x2="8.25143" y2="8.94967" gradientUnits="userSpaceOnUse">
<stop stop-color="white"/>
<stop offset="1" stop-color="#FFBFBF"/>
</linearGradient>
<linearGradient id="paint4_linear_374_1992" x1="14.2002" y1="16" x2="17.6548" y2="16" gradientUnits="userSpaceOnUse">
<stop stop-color="white"/>
<stop offset="1" stop-color="#FFBFBF"/>
</linearGradient>
<linearGradient id="paint5_linear_374_1992" x1="10.6849" y1="16" x2="14.0887" y2="16" gradientUnits="userSpaceOnUse">
<stop stop-color="white"/>
<stop offset="1" stop-color="#FFBFBF"/>
</linearGradient>
<linearGradient id="paint6_linear_374_1992" x1="6.9408" y1="16" x2="10.3445" y2="16" gradientUnits="userSpaceOnUse">
<stop stop-color="white"/>
<stop offset="1" stop-color="#FFBFBF"/>
</linearGradient>
</defs>
</svg>
