<svg width="24" height="24" viewBox="0 0 24 24" fill="none" xmlns="http://www.w3.org/2000/svg">
<path d="M12.1384 2C12.6907 2 13.1384 2.44772 13.1384 3V5C13.1384 5.55228 12.6907 6 12.1384 6C11.5861 6 11.1384 5.55228 11.1384 5V3C11.1384 2.44772 11.5861 2 12.1384 2ZM17.9291 4.10554C18.3521 4.46054 18.4073 5.0913 18.0523 5.51437L16.7667 7.04646C16.4117 7.46953 15.781 7.52472 15.3579 7.16971C14.9348 6.81471 14.8797 6.18396 15.2347 5.76088L16.5202 4.22879C16.8752 3.80572 17.506 3.75054 17.9291 4.10554ZM6.35721 4.10558C6.78029 3.75058 7.41104 3.80576 7.76604 4.22884L9.05162 5.76093C9.40662 6.184 9.35144 6.81476 8.92836 7.16976C8.50529 7.52476 7.87453 7.46958 7.51953 7.0465L6.23396 5.51441C5.87895 5.09134 5.93414 4.46058 6.35721 4.10558ZM5.39541 8.78081C6.01476 8.81379 6.60318 9.06344 7.10987 9.52194L7.12153 9.53249C7.47048 9.84832 7.77505 9.98134 8.24466 10.0685C10.2462 10.4402 11.8323 12.3059 11.5734 14.4742L11.325 17.4551C11.3239 17.4688 11.3225 17.4825 11.3208 17.4961C11.0705 19.4979 9.36895 21 7.35165 21H1C0.447715 21 0 20.5523 0 20C0 19.4477 0.447715 19 1 19H7.35165C9.79531 19 9.3821 15.8808 9.58621 14.2481C9.71417 13.2243 8.95274 12.2342 7.87954 12.0349C7.07042 11.8847 6.40951 11.5864 5.80131 11.0351C5.47484 10.7392 5.12348 10.718 4.74356 10.9349C4.28457 11.1968 3.83626 11.7459 3.62201 12.3534C3.36112 13.0933 2.64074 14 1.5 14H1C0.447715 14 0 13.5523 0 13C0 12.4477 0.447715 12 1 12C1.33628 12 1.60255 12.0663 1.73585 11.6883C2.08789 10.69 2.82173 9.72888 3.75223 9.19784C4.22749 8.9266 4.7899 8.74857 5.39541 8.78081ZM18.3633 11.0018C17.7613 11.5724 17.1051 11.8901 16.284 12.0315C15.1165 12.2326 14.2926 13.2742 14.4143 14.2481C14.416 14.2617 14.4175 14.2754 14.4186 14.2891C14.5544 15.9193 14.2591 19 16.6489 19H23.0005C23.5528 19 24.0005 19.4477 24.0005 20C24.0005 20.5523 23.5528 21 23.0005 21H16.6489C14.6316 21 12.93 19.4979 12.6798 17.4961C12.6781 17.4825 12.6766 17.4688 12.6755 17.4551L12.4271 14.4741C12.1604 12.2348 13.958 10.4027 15.9445 10.0605C16.4181 9.97896 16.6899 9.83034 17.0334 9.50674C17.5195 9.04878 18.0964 8.80286 18.7071 8.77898C19.2998 8.75581 19.8472 8.94388 20.3048 9.21635C21.2021 9.7506 21.9187 10.7019 22.2653 11.6897C22.3976 12.0671 22.6655 12 23.0005 12C23.5528 12 24.0005 12.4477 24.0005 13C24.0005 13.5523 23.5528 14 23.0005 14H22.5C21.3596 14 20.6383 13.0938 20.378 12.3518C20.1656 11.7462 19.7242 11.1983 19.2817 10.9348C18.9449 10.7343 18.6533 10.7269 18.3633 11.0018Z" fill="#7D7D7D"/>
</svg>
