<svg width="24" height="24" viewBox="0 0 24 24" fill="none" xmlns="http://www.w3.org/2000/svg">
<path d="M10.9357 2.08789C11.5863 1.67892 12.4137 1.67892 13.0643 2.08789L17.0643 4.60217C17.6466 4.96817 18 5.60769 18 6.29544V9.8991C18.0216 9.91159 18.0431 9.92452 18.0643 9.93789L22.0643 12.4522C22.6466 12.8182 23 13.4577 23 14.1454V17.7546C23 18.4423 22.6466 19.0819 22.0643 19.4479L18.0643 21.9621C17.4137 22.3711 16.5863 22.3711 15.9357 21.9621L12 19.4883L8.06434 21.9621C7.41371 22.3711 6.58629 22.3711 5.93566 21.9621L1.93566 19.4479C1.35338 19.0819 1 18.4423 1 17.7546V14.1454C1 13.4577 1.35338 12.8182 1.93566 12.4522L5.93566 9.93789C5.95692 9.92452 5.97837 9.91159 6 9.8991V6.29544C6 5.60769 6.35338 4.96817 6.93566 4.60217L10.9357 2.08789ZM6.99432 11.6347L3 14.1454L3 17.7546L7 20.2689L11 17.7546V14.1509C10.9784 14.1384 10.9569 14.1255 10.9357 14.1121L6.99432 11.6347ZM13 14.1509V17.7546L17 20.2689L21 17.7546V14.1454L17.0057 11.6347L13.0643 14.1121C13.0431 14.1255 13.0216 14.1384 13 14.1509ZM12 12.4117L15.9357 9.93789C15.9569 9.92452 15.9784 9.91159 16 9.8991V6.29544L12 3.78116L8 6.29544L8 9.8991C8.02163 9.91159 8.04308 9.92452 8.06434 9.93789L12 12.4117Z" fill="#7D7D7D"/>
</svg>
