<svg width="24" height="24" viewBox="0 0 24 24" fill="none" xmlns="http://www.w3.org/2000/svg">
<path d="M12.1796 11.8179C12.2949 12.6382 11.7233 13.3968 10.903 13.512C10.0826 13.6273 9.32409 13.0558 9.20879 12.2354C9.0935 11.415 9.66507 10.6565 10.4854 10.5412C11.3058 10.4259 12.0643 10.9975 12.1796 11.8179Z" fill="#7D7D7D"/>
<path d="M14.2794 1.70735L17.736 2.13177C18.535 2.22986 19.1944 2.31081 19.7262 2.42066C20.2785 2.53474 20.7793 2.69554 21.2309 3.00014C21.9312 3.4725 22.464 4.15443 22.7529 4.94821C22.9392 5.46006 22.9741 5.98493 22.9511 6.54843C22.9291 7.09098 22.8481 7.75038 22.75 8.54935L22.3256 12.0059C22.2275 12.8049 22.1465 13.4644 22.0367 13.9962C21.9226 14.5485 21.7618 15.0493 21.4572 15.5009C20.9848 16.2012 20.3029 16.734 19.5091 17.0229C19.4277 17.0525 19.3454 17.0785 19.2619 17.1012C18.7289 17.2458 18.1796 16.931 18.035 16.398C17.8903 15.865 18.2051 15.3156 18.7381 15.171C18.7686 15.1627 18.7974 15.1536 18.8251 15.1435C19.222 14.999 19.5629 14.7326 19.7991 14.3825C19.8973 14.237 19.989 14.0224 20.078 13.5916C20.1694 13.1493 20.2411 12.5715 20.3455 11.7213L20.7599 8.34661C20.8642 7.49642 20.9344 6.91837 20.9528 6.46715C20.9707 6.02764 20.9335 5.79719 20.8735 5.63225C20.7291 5.23536 20.4627 4.89439 20.1125 4.65821C19.967 4.56006 19.7524 4.46829 19.3216 4.37931C18.8793 4.28796 18.3015 4.21622 17.4513 4.11183L14.0766 3.69747C13.2264 3.59308 12.6484 3.52289 12.1972 3.50454C11.7577 3.48666 11.5272 3.52378 11.3623 3.58382C10.9654 3.72827 10.6244 3.99467 10.3882 4.34482C10.3214 4.44394 10.2574 4.57563 10.1956 4.78414C10.0387 5.31366 9.48218 5.61571 8.95265 5.45879C8.42313 5.30186 8.12108 4.74539 8.27801 4.21586C8.38283 3.86215 8.52321 3.53323 8.73015 3.22643C9.20251 2.52613 9.88445 1.99334 10.6782 1.70443C11.1901 1.51813 11.7149 1.48327 12.2784 1.50619C12.821 1.52826 13.4804 1.60924 14.2794 1.70735ZM11.7602 8.80026C11.309 8.81861 10.7309 8.8888 9.88073 8.99319L6.50608 9.40755C5.65588 9.51194 5.07802 9.58367 4.63577 9.67502C4.20499 9.76401 3.99037 9.85577 3.84485 9.95393C3.4947 10.1901 3.2283 10.5311 3.08385 10.928C3.02381 11.0929 2.98669 11.3234 3.00457 11.7629C3.02292 12.2141 3.09311 12.7921 3.19751 13.6423L3.47503 15.9026C3.68383 15.676 3.87699 15.4746 4.05931 15.3C4.45033 14.9256 4.84957 14.6163 5.33514 14.4178C6.09046 14.1091 6.92211 14.0388 7.71853 14.2163C8.23053 14.3305 8.67603 14.5684 9.12435 14.8719C9.55516 15.1635 10.0505 15.5597 10.6493 16.0388L14.3141 18.9707C14.4548 18.7982 14.5665 18.6025 14.6435 18.3908C14.7036 18.2258 14.7407 17.9954 14.7228 17.5559C14.7045 17.1047 14.6343 16.5266 14.5299 15.6764L14.1155 12.3018C14.0111 11.4516 13.9394 10.8737 13.848 10.4315C13.7591 10.0007 13.6673 9.78605 13.5691 9.64053C13.333 9.29038 12.992 9.02399 12.5951 8.87953C12.4302 8.8195 12.1997 8.78238 11.7602 8.80026ZM12.1431 19.7951L9.43119 17.6256C8.79321 17.1152 8.36009 16.7696 8.00329 16.5281C7.65652 16.2934 7.45002 16.2056 7.28344 16.1684C6.88523 16.0797 6.46941 16.1148 6.09175 16.2692C5.93377 16.3337 5.74494 16.455 5.4425 16.7446C5.1313 17.0426 4.76232 17.4559 4.21908 18.0662L3.81279 18.5225C3.83428 18.6543 3.85618 18.7752 3.87934 18.8873C3.96832 19.3181 4.06009 19.5327 4.15824 19.6782C4.39442 20.0284 4.73539 20.2948 5.13228 20.4392C5.29722 20.4992 5.52767 20.5364 5.96718 20.5185C6.4184 20.5001 6.99645 20.4299 7.84664 20.3256L11.2213 19.9112C11.5716 19.8682 11.8757 19.8307 12.1431 19.7951ZM11.6789 6.80191C12.2424 6.77899 12.7673 6.81385 13.2791 7.00015C14.0729 7.28906 14.7548 7.82184 15.2272 8.52215C15.5318 8.97373 15.6926 9.47457 15.8067 10.0269C15.9165 10.5587 15.9975 11.2181 16.0956 12.0171L16.52 15.4736C16.6181 16.2726 16.6991 16.932 16.7212 17.4746C16.7441 18.0381 16.7092 18.563 16.5229 19.0748C16.234 19.8686 15.7012 20.5505 15.0009 21.0229C14.5493 21.3275 14.0485 21.4883 13.4962 21.6024C12.9644 21.7122 12.305 21.7932 11.506 21.8913L8.04937 22.3157C7.25041 22.4138 6.59101 22.4948 6.04846 22.5168C5.48496 22.5398 4.96009 22.5049 4.44824 22.3186C3.65446 22.0297 2.97253 21.4969 2.50017 20.7966C2.19557 20.345 2.03477 19.8442 1.92069 19.2919C1.81084 18.7601 1.72989 18.1007 1.6318 17.3017L1.20738 13.8451C1.10927 13.0461 1.02829 12.3867 1.00622 11.8441C0.983303 11.2806 1.01816 10.7558 1.20446 10.2439C1.49337 9.45015 2.02616 8.76821 2.72646 8.29585C3.17804 7.99126 3.67888 7.83046 4.23119 7.71637C4.76296 7.60653 5.42236 7.52558 6.22133 7.42749L9.67798 7.00307C10.4769 6.90495 11.1364 6.82398 11.6789 6.80191Z" fill="#7D7D7D"/>
</svg>
