<svg width="24" height="24" viewBox="0 0 24 24" fill="none" xmlns="http://www.w3.org/2000/svg">
<path fill-rule="evenodd" clip-rule="evenodd" d="M11.3084 13.1767C10.9761 12.0684 11.9669 11.0331 13.0692 11.2812L13.1766 11.3085L20.9159 13.6308C22.2759 14.0389 22.3602 15.9325 21.0418 16.4599L17.7684 17.7685L16.4598 21.0419C15.9324 22.3603 14.0388 22.276 13.6307 20.9159L11.3084 13.1767ZM15.1346 18.9687L15.992 16.8271L16.0555 16.6884C16.2206 16.3733 16.4937 16.1256 16.827 15.9921L18.9686 15.1347L13.4911 13.4911L15.1346 18.9687Z" fill="#7D7D7D"/>
<path d="M7.04966 15.5351C7.44017 15.1446 8.07417 15.1446 8.4647 15.5351C8.85522 15.9256 8.85522 16.5596 8.4647 16.9501L6.34263 19.0712C5.95208 19.4614 5.31899 19.4616 4.92856 19.0712C4.53818 18.6808 4.53834 18.0477 4.92856 17.6571L7.04966 15.5351Z" fill="#7D7D7D"/>
<path d="M2.34067 9.41203C2.48361 8.87858 3.03183 8.56209 3.56528 8.705L6.46274 9.48137C6.99619 9.6243 7.31365 10.1725 7.17075 10.706C7.02781 11.2394 6.47863 11.556 5.94517 11.413L3.0477 10.6366C2.51433 10.4937 2.19786 9.94543 2.34067 9.41203Z" fill="#7D7D7D"/>
<path d="M17.6571 4.92863C18.0476 4.53843 18.6807 4.53826 19.0711 4.92863C19.4616 5.31906 19.4614 5.95215 19.0711 6.3427L16.95 8.46477C16.5595 8.85529 15.9255 8.85529 15.535 8.46477C15.1447 8.07439 15.1449 7.44125 15.535 7.0507L17.6571 4.92863Z" fill="#7D7D7D"/>
<path d="M9.41196 2.34074C9.94528 2.19797 10.4935 2.51453 10.6366 3.04777L11.4129 5.94621C11.5557 6.47957 11.2393 7.02791 10.7059 7.17082C10.1726 7.31371 9.62438 6.99704 9.4813 6.46379L8.70493 3.56535C8.56216 3.03197 8.87858 2.48366 9.41196 2.34074Z" fill="#7D7D7D"/>
</svg>
