<svg width="24" height="24" viewBox="0 0 24 24" fill="none" xmlns="http://www.w3.org/2000/svg">
<path d="M11.9935 3.71112C15.1785 3.71112 17.7604 6.29302 17.7604 9.47795C17.7604 11.3323 16.8859 12.9826 15.5232 14.0388H8.46391C7.10118 12.9826 6.22672 11.3323 6.22672 9.47795C6.22672 6.29302 8.80862 3.71112 11.9935 3.71112ZM16.9611 15.3471C18.6245 13.9379 19.6826 11.8315 19.6826 9.47795C19.6826 5.23138 16.2401 1.78885 11.9935 1.78885C7.74697 1.78885 4.30444 5.23138 4.30444 9.47795C4.30444 11.8376 5.36806 13.9487 7.03882 15.358V18C7.03882 18.5308 7.46913 18.9611 7.99996 18.9611H8.15431C8.58382 20.6844 10.1418 21.9611 11.998 21.9611C13.8543 21.9611 15.4123 20.6844 15.8418 18.9611H16C16.5308 18.9611 16.9611 18.5308 16.9611 18V15.3471ZM15.0388 15.9611V17.0388H8.96109V15.9611H15.0388ZM13.7966 18.9611C13.4531 19.6025 12.7765 20.0388 11.998 20.0388C11.2196 20.0388 10.543 19.6025 10.1995 18.9611H13.7966Z" fill="#7D7D7D"/>
</svg>
