<svg width="24" height="24" viewBox="0 0 24 24" fill="none" xmlns="http://www.w3.org/2000/svg">
<path fill-rule="evenodd" clip-rule="evenodd" d="M13.138 0.873117C13.6819 0.96902 14.045 1.48768 13.9491 2.03157L13.7036 3.4243C13.6077 3.9682 13.089 4.33136 12.5451 4.23546C12.0012 4.13956 11.638 3.6209 11.7339 3.07701L11.9795 1.68428C12.0754 1.14038 12.5941 0.777214 13.138 0.873117ZM19.7083 4.29267C20.0988 4.68319 20.0988 5.31635 19.7083 5.70688L18.7083 6.70688C18.3178 7.0974 17.6846 7.0974 17.2941 6.70688C16.9036 6.31636 16.9036 5.68319 17.2941 5.29267L18.2941 4.29267C18.6846 3.90214 19.3178 3.90214 19.7083 4.29267ZM8.58703 5.29291C8.87031 5.57618 8.95719 6.00118 8.80781 6.3729C8.49458 7.15231 8.32172 8.00434 8.32172 8.89919C8.32172 12.6432 11.3568 15.6783 15.1008 15.6783C15.9957 15.6783 16.8477 15.5054 17.6271 15.1922C17.9988 15.0428 18.4238 15.1297 18.7071 15.413C18.9904 15.6963 19.0773 16.1213 18.9279 16.493C17.6313 19.7193 14.4728 22 10.7791 22C5.93054 22 2 18.0695 2 13.2209C2 9.52725 4.28075 6.36869 7.50704 5.07214C7.87876 4.92275 8.30376 5.00963 8.58703 5.29291ZM6.35949 8.08015C4.91423 9.32391 4 11.1663 4 13.2209C4 16.9649 7.03511 20 10.7791 20C12.8337 20 14.6761 19.0858 15.9199 17.6405C15.6501 17.6655 15.3769 17.6783 15.1008 17.6783C10.2523 17.6783 6.32172 13.7478 6.32172 8.89919C6.32172 8.62314 6.33449 8.34993 6.35949 8.08015ZM11 7.00001C11 6.44773 11.4477 6.00001 12 6.00001C15.3137 6.00001 18 8.68631 18 12C18 12.5523 17.5523 13 17 13C16.4477 13 16 12.5523 16 12C16 9.79088 14.2091 8.00001 12 8.00001C11.4477 8.00001 11 7.5523 11 7.00001ZM23.1278 10.8613C23.2237 11.4052 22.8606 11.9238 22.3167 12.0197L20.924 12.2653C20.3801 12.3612 19.8614 11.998 19.7655 11.4541C19.6696 10.9102 20.0328 10.3916 20.5767 10.2957L21.9694 10.0501C22.5133 9.9542 23.0319 10.3174 23.1278 10.8613Z" fill="#7D7D7D"/>
</svg>
