<svg width="24" height="24" viewBox="0 0 24 24" fill="none" xmlns="http://www.w3.org/2000/svg">
<path d="M12.6289 18.9744C14.1946 15.0086 19.8054 15.0086 21.3711 18.9744L21.4443 19.1697L21.4726 19.2673C21.591 19.7602 21.3187 20.273 20.8301 20.4441C20.3414 20.6149 19.8095 20.3837 19.5947 19.9246L19.5556 19.8298L19.4687 19.6082C18.5231 17.4638 15.4769 17.4639 14.5312 19.6082L14.4443 19.8298C14.2619 20.351 13.6911 20.6263 13.1699 20.4441C12.6487 20.2617 12.3735 19.6909 12.5556 19.1697L12.6289 18.9744ZM11.998 4.38649C15.4375 1.70949 19.805 3.15612 21.3613 6.58668C21.5894 7.08961 21.3661 7.68275 20.8633 7.9109C20.3604 8.13876 19.7681 7.91562 19.54 7.41286C18.4249 4.95478 15.1898 3.96372 12.7031 6.42555C12.3134 6.81107 11.6855 6.81124 11.2959 6.42555C8.92679 4.08021 5.89417 4.87174 4.64353 7.05348C3.4842 9.07641 3.66359 12.8886 9.04197 16.9304L9.5781 17.322L9.65915 17.3855C10.0407 17.719 10.1148 18.2943 9.8154 18.7166C9.51586 19.1389 8.94874 19.2585 8.50779 19.0086L8.42185 18.9539L7.84372 18.532C2.0351 14.1589 1.03739 9.32383 2.90818 6.05934C4.65683 3.00834 8.7465 1.85881 11.998 4.38649ZM17 9.24977C18.6567 9.24982 19.9998 10.5931 20 12.2498C20 13.9066 18.6568 15.2497 17 15.2498C15.3431 15.2498 14 13.9066 14 12.2498C14.0001 10.593 15.3432 9.24977 17 9.24977ZM17 11.2498C16.4478 11.2498 16.0001 11.6976 16 12.2498C16 12.8021 16.4477 13.2498 17 13.2498C17.5522 13.2497 18 12.802 18 12.2498C17.9998 11.6976 17.5521 11.2498 17 11.2498Z" fill="#7D7D7D"/>
</svg>
