<svg width="24" height="24" viewBox="0 0 24 24" fill="none" xmlns="http://www.w3.org/2000/svg">
<path d="M12 3.60001C12.5891 3.60001 13.0666 4.07757 13.0666 4.66667V10.9333H19.3333C19.9224 10.9333 20.4 11.4109 20.4 12C20.4 12.5891 19.9224 13.0667 19.3333 13.0667H13.0666V19.3333C13.0666 19.9224 12.5891 20.4 12 20.4C11.4109 20.4 10.9333 19.9224 10.9333 19.3333V13.0667H4.66664C4.07754 13.0667 3.59998 12.5891 3.59998 12C3.59998 11.4109 4.07754 10.9333 4.66664 10.9333H10.9333V4.66667C10.9333 4.07757 11.4109 3.60001 12 3.60001Z" fill="#7D7D7D"/>
</svg>
