<svg width="24" height="24" viewBox="0 0 24 24" fill="none" xmlns="http://www.w3.org/2000/svg">
<path d="M3.6311 2.22483C3.23832 1.90448 2.65932 1.92708 2.29321 2.29319C1.92709 2.65931 1.9045 3.23831 2.22485 3.63108L2.29321 3.70725L4.96801 6.38206C3.95794 7.64499 3.28016 9.18788 3.06957 10.8762C3.0014 11.424 3.38999 11.9239 3.93774 11.9924C4.4856 12.0607 4.98535 11.672 5.05395 11.1242C5.20772 9.89112 5.68287 8.75674 6.39379 7.80784L16.1916 17.6057C15.0228 18.4814 13.5729 19.0002 12.0002 19.0002C10.0895 19.0002 8.32708 18.2338 7.04711 17.0002H9.00024L9.10278 16.9953C9.60673 16.9439 10.0001 16.5177 10.0002 16.0002C10.0002 15.4826 9.60678 15.0566 9.10278 15.0051L9.00024 15.0002H5.00024C4.44795 15.0002 4.00024 15.4479 4.00024 16.0002V20.0002C4.00037 20.5524 4.44803 21.0002 5.00024 21.0002C5.55234 21.0001 6.00011 20.5523 6.00024 20.0002V18.7551C7.60904 20.1539 9.72488 21.0002 12.0002 21.0002C14.1247 21.0002 16.0764 20.2604 17.6155 19.0295L20.2932 21.7073L20.3694 21.7756C20.7621 22.0957 21.3412 22.0733 21.7073 21.7073C22.0733 21.3412 22.0958 20.7621 21.7756 20.3694L21.7073 20.2932L18.4534 17.0393C18.4275 17.0059 18.4 16.9732 18.3694 16.9426C18.3391 16.9124 18.3066 16.8851 18.2737 16.8596L3.70727 2.29319L3.6311 2.22483Z" fill="#7D7D7D"/>
<path d="M19.4622 15.0608C19.995 15.2046 20.5444 14.8895 20.6887 14.3567C20.77 14.0563 20.8359 13.7495 20.886 13.4377L20.9309 13.1242C20.9992 12.5763 20.6097 12.0765 20.0618 12.008C19.5481 11.9441 19.0773 12.2817 18.9641 12.7756L18.9456 12.8762C18.9048 13.2031 18.8422 13.5233 18.7581 13.8342C18.6139 14.3673 18.9291 14.9165 19.4622 15.0608Z" fill="#7D7D7D"/>
<path d="M20.012 4.00022C20.012 3.44802 19.5641 3.00036 19.012 3.00022C18.4597 3.00029 18.012 3.44798 18.012 4.00022V5.25413C16.4018 3.84946 14.2809 3.00032 12.0002 3.00022C11.1928 3.00023 10.4081 3.10644 9.66137 3.30686C9.12808 3.45011 8.81216 3.99911 8.95532 4.53245C9.09865 5.06553 9.64672 5.38152 10.1799 5.2385C10.7591 5.08307 11.3695 5.00023 12.0002 5.00022C13.9111 5.00032 15.6734 5.76652 16.9534 7.00022H15.012C14.4597 7.00029 14.012 7.44798 14.012 8.00022C14.0121 8.55236 14.4598 9.00015 15.012 9.00022H19.012L19.0159 8.99925C19.0272 8.99908 19.0387 8.99883 19.05 8.99827C19.5845 8.9781 20.0118 8.53955 20.012 8.00022V4.00022Z" fill="#7D7D7D"/>
</svg>
