<svg width="24" height="24" viewBox="0 0 24 24" fill="none" xmlns="http://www.w3.org/2000/svg">
<path d="M5.33334 5.66666C5.88563 5.66666 6.33334 6.11437 6.33334 6.66666C6.33334 7.61222 6.33389 8.27131 6.36908 8.78721C6.40367 9.29412 6.46835 9.58932 6.56171 9.81471C6.86619 10.5498 7.45021 11.1338 8.18529 11.4383C8.41068 11.5317 8.70588 11.5963 9.21279 11.6309C9.72869 11.6661 10.3878 11.6667 11.3333 11.6667H16.2525L13.9596 9.37376C13.569 8.98324 13.569 8.35007 13.9596 7.95955C14.3501 7.56903 14.9833 7.56903 15.3738 7.95955L19.3738 11.9595C19.7643 12.3501 19.7643 12.9832 19.3738 13.3738L15.3738 17.3738C14.9833 17.7643 14.3501 17.7643 13.9596 17.3738C13.569 16.9832 13.569 16.3501 13.9596 15.9595L16.2525 13.6667H11.2978C10.3961 13.6667 9.66866 13.6667 9.07665 13.6263C8.46791 13.5847 7.92963 13.4972 7.41993 13.2861C6.19479 12.7786 5.22142 11.8052 4.71395 10.5801C4.50282 10.0704 4.41526 9.53209 4.37372 8.92335C4.33333 8.33134 4.33334 7.60393 4.33334 6.70217L4.33334 6.66666C4.33334 6.11437 4.78106 5.66666 5.33334 5.66666Z" fill="#7D7D7D"/>
</svg>
