<svg width="24" height="24" viewBox="0 0 24 24" fill="none" xmlns="http://www.w3.org/2000/svg">
<path d="M9 7C9.55228 7 10 7.44772 10 8V16C10 16.5523 9.55228 17 9 17C8.44772 17 8 16.5523 8 16V8C8 7.44772 8.44772 7 9 7Z" fill="#7D7D7D"/>
<path fill-rule="evenodd" clip-rule="evenodd" d="M17.2568 3.40723C19.8989 3.54093 22 5.72512 22 8.40039V15.6699C21.9998 18.4312 19.7613 20.6699 17 20.6699H7C4.2387 20.6699 2.0002 18.4312 2 15.6699V8.40039C2 5.72512 4.10111 3.54093 6.74316 3.40723L7 3.40039H17L17.2568 3.40723ZM7 5.40039C5.34315 5.40039 4 6.74354 4 8.40039V15.6699C4.0002 17.3266 5.34327 18.6699 7 18.6699H17C18.6567 18.6699 19.9998 17.3266 20 15.6699V8.40039C20 6.74354 18.6569 5.40039 17 5.40039H7Z" fill="#7D7D7D"/>
</svg>
