<svg width="24" height="24" viewBox="0 0 24 24" fill="none" xmlns="http://www.w3.org/2000/svg">
<path fill-rule="evenodd" clip-rule="evenodd" d="M11.5 4.90987C11.5 4.47482 10.9828 4.24731 10.6621 4.54129L9.01888 6.04761C8.61176 6.4208 7.97919 6.3933 7.606 5.98618C7.23281 5.57906 7.26031 4.94649 7.66743 4.5733L9.31068 3.06698C10.9142 1.59711 13.5 2.7346 13.5 4.90987L13.5 9.19999C13.5 9.75227 13.0523 10.2 12.5 10.2C11.9477 10.2 11.5 9.75227 11.5 9.19999L11.5 4.90987ZM1.27299 3.31336C1.6522 2.91185 2.28511 2.89376 2.68663 3.27298L20.6866 20.273C21.0881 20.6522 21.1062 21.2851 20.727 21.6866C20.3478 22.0881 19.7149 22.1062 19.3134 21.727L13.5 16.2366L13.5 19.0902C13.5 21.2654 10.9142 22.4029 9.31068 20.933L6.65003 18.4941C6.30334 18.1763 5.85011 18 5.3798 18C3.23705 18 1.5 16.263 1.5 14.1202V9.87982C1.5 8.50171 2.21807 7.2921 3.3006 6.60382L1.31338 4.727C0.911861 4.34779 0.893778 3.71488 1.27299 3.31336ZM4.85674 8.07351C4.07331 8.2998 3.5 9.0235 3.5 9.87982V14.1202C3.5 15.1584 4.34162 16 5.3798 16C6.35049 16 7.28593 16.3639 8.00148 17.0198L10.6621 19.4587C10.9828 19.7527 11.5 19.5252 11.5 19.0902L11.5 14.3477L4.85674 8.07351ZM19.8129 6.35658C20.2982 6.09306 20.9053 6.27289 21.1688 6.75825C22.0154 8.31753 22.4959 10.1041 22.4959 12C22.4959 13.8192 22.0535 15.538 21.2695 17.0518C21.0156 17.5423 20.4121 17.734 19.9217 17.48C19.4313 17.226 19.2396 16.6226 19.4935 16.1322C20.1338 14.8958 20.4959 13.4917 20.4959 12C20.4959 10.4457 20.1027 8.9862 19.4112 7.71255C19.1477 7.22719 19.3275 6.6201 19.8129 6.35658ZM15.7998 7.90038C16.2414 7.56868 16.8683 7.65777 17.2 8.09936C18.016 9.18582 18.5 10.5378 18.5 12C18.5 12.6517 18.4038 13.2828 18.224 13.8789C18.0646 14.4077 17.5067 14.707 16.9779 14.5476C16.4491 14.3882 16.1497 13.8303 16.3092 13.3015C16.4331 12.8907 16.5 12.454 16.5 12C16.5 10.9858 16.1657 10.0525 15.6008 9.30052C15.2691 8.85893 15.3582 8.23207 15.7998 7.90038Z" fill="#7D7D7D"/>
</svg>
