<svg width="16" height="16" viewBox="0 0 16 16" fill="none" xmlns="http://www.w3.org/2000/svg">
<path d="M4.77167 2.16534C5.98084 1.4967 7.36828 1.22029 8.7414 1.37433L8.80878 1.38507C9.13881 1.45666 9.36776 1.76876 9.32929 2.11163C9.28792 2.47708 8.95754 2.74038 8.59199 2.69952C7.49361 2.57641 6.38342 2.79745 5.41621 3.33234C4.44912 3.86733 3.67206 4.69007 3.19257 5.68585C2.71314 6.68186 2.55534 7.80309 2.74042 8.89288C2.92564 9.98248 3.44446 10.9881 4.22578 11.7698C5.00713 12.5514 6.01229 13.0714 7.10175 13.2571C8.19136 13.4427 9.31262 13.2849 10.3088 12.806C11.305 12.3269 12.1288 11.5494 12.6643 10.5823C13.166 9.67587 13.3923 8.644 13.3176 7.61359L13.298 7.40753L13.2941 7.33917C13.2908 7.00141 13.544 6.70864 13.8869 6.67023C14.2296 6.63224 14.5412 6.86173 14.6125 7.19171L14.6232 7.25909L14.6467 7.51691C14.7401 8.80527 14.4578 10.0955 13.8303 11.2288C13.1609 12.4376 12.1321 13.4093 10.8869 14.0081C9.64164 14.6068 8.24022 14.8036 6.87812 14.5716C5.51602 14.3395 4.25924 13.6895 3.28242 12.7122C2.30569 11.7349 1.65741 10.4777 1.42597 9.11554C1.19467 7.75334 1.39211 6.35269 1.9914 5.10773C2.59085 3.8627 3.56247 2.83412 4.77167 2.16534ZM8.00019 4.0003C8.36801 4.0006 8.66601 4.29848 8.66621 4.66632C8.66616 5.03429 8.3681 5.33302 8.00019 5.33331C7.47302 5.33337 6.95711 5.48972 6.51874 5.78253C6.08025 6.07554 5.73815 6.49256 5.53632 6.9798C5.33464 7.46686 5.28218 8.00278 5.38496 8.51984C5.48783 9.0369 5.74174 9.51222 6.11445 9.88507C6.48729 10.2578 6.9626 10.5126 7.47968 10.6155C7.99687 10.7184 8.53352 10.665 9.0207 10.4632C9.50767 10.2614 9.92406 9.91999 10.217 9.48175C10.5099 9.04336 10.6661 8.52753 10.6662 8.0003C10.6663 7.63228 10.9652 7.33351 11.3332 7.33331C11.7012 7.33346 12.0001 7.63225 12.0002 8.0003C12.0001 8.79124 11.7658 9.56531 11.3264 10.223C10.887 10.8804 10.262 11.3929 9.53144 11.6956C8.80065 11.9983 7.99573 12.0774 7.21992 11.9232C6.44415 11.7688 5.73142 11.3877 5.17206 10.8284C4.61274 10.2691 4.23173 9.55636 4.07734 8.78058C3.923 8.00468 4.00215 7.19994 4.30488 6.46905C4.6076 5.73841 5.11998 5.11358 5.77753 4.67413C6.43521 4.23473 7.20924 4.00037 8.00019 4.0003ZM11.6047 1.4632C11.7906 1.32621 12.0373 1.29398 12.2551 1.38409C12.504 1.48733 12.6662 1.7308 12.6662 2.0003V3.33331H14.0002C14.2695 3.33353 14.5132 3.49567 14.6164 3.74445C14.7194 3.99334 14.6622 4.28038 14.4719 4.47101L12.4719 6.47101C12.347 6.5959 12.1768 6.66618 12.0002 6.66632H10.2766L9.28632 7.65655C9.31602 7.76776 9.33319 7.88322 9.3332 8.0003C9.33308 8.35356 9.19323 8.69279 8.94355 8.94269C8.69363 9.19261 8.35362 9.33317 8.00019 9.33331C7.64677 9.33323 7.30679 9.19255 7.05683 8.94269C6.80712 8.69278 6.66633 8.35359 6.66621 8.0003C6.66623 7.64679 6.80691 7.30696 7.05683 7.05695C7.30679 6.80703 7.64673 6.6664 8.00019 6.66632C8.11707 6.66637 8.23293 6.68357 8.34394 6.7132L9.3332 5.72394V4.0003C9.33322 3.82361 9.40361 3.65361 9.52851 3.52862L11.5285 1.52862L11.6047 1.4632ZM10.6662 4.27667V5.33331H11.7238L12.3908 4.66632H12.0002C11.6323 4.66615 11.3334 4.36818 11.3332 4.0003V3.60968L10.6662 4.27667Z" fill="currentColor"/>
</svg>
