<svg width="24" height="24" viewBox="0 0 24 24" fill="none" xmlns="http://www.w3.org/2000/svg">
<path d="M10.4209 1.50648C11.4291 1.07332 12.5709 1.07332 13.579 1.50648C14.2528 1.79598 14.7666 2.32842 15.246 2.96227C15.7196 3.58853 16.2461 4.4353 16.8989 5.48518L20.4406 11.1815C21.1619 12.3415 21.7401 13.2715 22.1229 14.0348C22.507 14.8009 22.7766 15.5517 22.713 16.327C22.6189 17.4751 22.0344 18.5267 21.1092 19.2129C20.4843 19.6763 19.7043 19.8437 18.8509 19.922C18.0006 20 16.9055 20 15.5396 20H8.46038C7.09443 20 5.99934 20 5.14906 19.922C4.2956 19.8437 3.51562 19.6763 2.89076 19.2129C1.96557 18.5267 1.38107 17.4751 1.28689 16.327C1.22329 15.5517 1.49293 14.8009 1.87708 14.0348C2.25981 13.2715 2.83806 12.3415 3.55933 11.1815L7.10108 5.48518C7.75384 4.43531 8.28031 3.58853 8.75394 2.96227C9.23331 2.32842 9.74712 1.79598 10.4209 1.50648ZM12.7895 3.34405C12.2854 3.12746 11.7145 3.12746 11.2104 3.34405C11.0184 3.42655 10.7616 3.62326 10.3491 4.16867C9.93732 4.71318 9.45857 5.48128 8.77288 6.5841L5.28515 12.1935C4.53023 13.4077 4.00156 14.2599 3.66491 14.9313C3.32486 15.6094 3.26277 15.9511 3.2802 16.1635C3.32729 16.7375 3.61953 17.2634 4.08213 17.6064C4.25329 17.7334 4.57627 17.8611 5.33175 17.9304C6.07967 17.999 7.08251 18 8.51223 18H15.4877C16.9174 18 17.9203 17.999 18.6682 17.9304C19.4237 17.8611 19.7466 17.7334 19.9178 17.6064C20.3804 17.2634 20.6726 16.7375 20.7197 16.1635C20.7372 15.9511 20.6751 15.6094 20.335 14.9313C19.9984 14.2599 19.4697 13.4077 18.7148 12.1935L15.227 6.5841C14.5414 5.48128 14.0626 4.71318 13.6508 4.16867C13.2383 3.62326 12.9815 3.42655 12.7895 3.34405Z" fill="#7D7D7D"/>
<path d="M12 7.00001C12.5523 7.00001 13 7.44772 13 8.00001V11C13 11.5523 12.5523 12 12 12C11.4477 12 11 11.5523 11 11V8.00001C11 7.44772 11.4477 7.00001 12 7.00001Z" fill="#7D7D7D"/>
<path d="M10.8515 14.5001C10.8515 13.865 11.3664 13.3501 12.0015 13.3501C12.6367 13.3501 13.1515 13.865 13.1515 14.5001C13.1515 15.1353 12.6367 15.6501 12.0015 15.6501C11.3664 15.6501 10.8515 15.1353 10.8515 14.5001Z" fill="#7D7D7D"/>
</svg>
