<svg width="24" height="24" viewBox="0 0 24 24" fill="none" xmlns="http://www.w3.org/2000/svg">
<path d="M7.17267 4.42109C6.0826 5.09237 5.59883 5.80264 5.48378 6.45512C5.36873 7.1076 5.5804 7.94049 6.37514 8.94412C7.17734 8.23087 7.57894 7.53012 7.6996 6.84583C7.82026 6.16153 7.68255 5.36569 7.17267 4.42109ZM6.67812 2.68575C7.30511 2.34336 8.09241 2.55162 8.46653 3.16274C9.28178 4.49442 9.65499 5.83408 9.42301 7.14971C9.21161 8.34865 8.52109 9.39443 7.47579 10.3065C7.51869 10.3527 7.56054 10.4001 7.60134 10.4487C8.54076 11.5682 8.73177 13.1276 8.38806 14.8737C9.6221 15.6193 10.37 17.0421 10.726 18.8438C10.7296 18.8591 10.7341 18.8784 10.7389 18.9013C10.7492 18.9496 10.7616 19.0147 10.7733 19.0937C10.7966 19.2504 10.8181 19.4682 10.8123 19.7214C10.8008 20.2183 10.6814 20.9228 10.1843 21.5458C9.8829 21.9235 9.33234 21.9854 8.95462 21.6839C8.57689 21.3825 8.51504 20.832 8.81646 20.4542C8.88091 20.3735 8.93055 20.2843 8.96783 20.1899C7.82291 20.4223 6.7521 20.3756 5.78676 19.9766C4.48559 19.4388 3.54396 18.331 2.88926 16.8271C2.60325 16.1701 2.88423 15.4057 3.52432 15.0885C3.67635 15.0132 3.82802 14.9429 3.97916 14.878C3.69027 14.6649 3.42856 14.4212 3.19659 14.1447C2.33787 13.1213 1.99125 11.7745 2.03143 10.2136C2.04987 9.49734 2.62756 8.92333 3.34174 8.90635C3.66354 8.89871 3.9764 8.90711 4.27863 8.93255C3.79677 8.02313 3.59558 7.08578 3.76036 6.15124C4.01597 4.7016 5.10137 3.54679 6.67812 2.68575ZM6.73332 14.1748C6.91977 12.9082 6.68664 12.0811 6.26076 11.5736C5.83489 11.066 5.0608 10.6928 3.78113 10.6565C3.81186 11.7295 4.09052 12.4875 4.53716 13.0198C4.9838 13.5521 5.68198 13.9582 6.73332 14.1748ZM8.82484 18.43C8.47688 17.2648 7.94992 16.6148 7.38399 16.3154C6.77585 15.9937 5.8923 15.9571 4.66215 16.489C5.1699 17.5013 5.77994 18.0802 6.45518 18.3593C7.066 18.6117 7.8391 18.6641 8.82484 18.43ZM15.6509 3.16274C16.0251 2.55162 16.8124 2.34336 17.4393 2.68575C19.0161 3.54679 20.1015 4.7016 20.3571 6.15124C20.5219 7.08578 20.3207 8.02313 19.8388 8.93255C20.1411 8.90711 20.4539 8.89871 20.7757 8.90635C21.4899 8.92333 22.0676 9.49735 22.086 10.2136C22.1262 11.7745 21.7796 13.1213 20.9209 14.1447C20.6889 14.4212 20.4272 14.6649 20.1383 14.878C20.2895 14.9429 20.4411 15.0132 20.5932 15.0885C21.2333 15.4057 21.5142 16.1701 21.2282 16.8271C20.5735 18.331 19.6319 19.4388 18.3307 19.9766C17.3654 20.3756 16.2946 20.4223 15.1496 20.1899C15.1869 20.2843 15.2366 20.3735 15.301 20.4542C15.6024 20.832 15.5406 21.3825 15.1629 21.6839C14.7851 21.9854 14.2346 21.9235 13.9332 21.5458C13.436 20.9228 13.3166 20.2183 13.3052 19.7214C13.2994 19.4682 13.3209 19.2504 13.3441 19.0937C13.3559 19.0147 13.3683 18.9496 13.3785 18.9013C13.3834 18.8784 13.3878 18.8591 13.3915 18.8438C13.7475 17.0421 14.4954 15.6193 15.7294 14.8737C15.3857 13.1276 15.5767 11.5682 16.5161 10.4487C16.5569 10.4001 16.5988 10.3527 16.6417 10.3065C15.5964 9.39443 14.9059 8.34865 14.6945 7.14971C14.4625 5.83408 14.8357 4.49442 15.6509 3.16274ZM17.3841 14.1748C18.4355 13.9582 19.1337 13.5521 19.5803 13.0198C20.027 12.4875 20.3056 11.7295 20.3363 10.6565C19.0567 10.6928 18.2826 11.066 17.8567 11.5736C17.4308 12.0811 17.1977 12.9082 17.3841 14.1748ZM15.2926 18.43C16.2784 18.6641 17.0515 18.6117 17.6623 18.3593C18.3375 18.0802 18.9476 17.5013 19.4553 16.489C18.2252 15.9571 17.3416 15.9937 16.7335 16.3154C16.1676 16.6148 15.6406 17.2648 15.2926 18.43ZM16.9448 4.42109C16.4349 5.36569 16.2972 6.16154 16.4179 6.84583C16.5385 7.53012 16.9401 8.23087 17.7423 8.94411C18.5371 7.94049 18.7487 7.1076 18.6337 6.45512C18.5186 5.80264 18.0349 5.09237 16.9448 4.42109Z" fill="#7D7D7D"/>
</svg>
